# 3ds Max Wavefront OBJ Exporter v0.97b - (c)2007 guruware
# File Created: 07.12.2015 17:26:05

mtllib floor.mtl

#
# object Box01
#

v  -23.7278 0.0000 28.0914
v  -23.7278 0.0000 -26.6570
v  66.7117 0.0000 -26.6570
v  66.7117 0.0000 28.0914
v  -23.7278 4.4874 28.0914
v  66.7117 4.4874 28.0914
v  66.7117 4.4874 -26.6570
v  -23.7278 4.4874 -26.6570
# 8 vertices

vn 0.0000 -1.0000 -0.0000
vn 0.0000 1.0000 -0.0000
vn 0.0000 0.0000 1.0000
vn 1.0000 0.0000 -0.0000
vn 0.0000 0.0000 -1.0000
vn -1.0000 0.0000 -0.0000
# 6 vertex normals

vt 1.0000 0.0000 0.0000
vt 1.0000 1.0000 0.0000
vt 0.0000 1.0000 0.0000
vt 0.0000 0.0000 0.0000
# 4 texture coords

g Box01
usemtl 09___Default
s 2
f 1/1/1 2/2/1 3/3/1 
f 3/3/1 4/4/1 1/1/1 
s 4
f 5/4/2 6/1/2 7/2/2 
f 7/2/2 8/3/2 5/4/2 
s 8
f 1/4/3 4/1/3 6/2/3 
f 6/2/3 5/3/3 1/4/3 
s 16
f 4/4/4 3/1/4 7/2/4 
f 7/2/4 6/3/4 4/4/4 
s 32
f 3/4/5 2/1/5 8/2/5 
f 8/2/5 7/3/5 3/4/5 
s 64
f 2/4/6 1/1/6 5/2/6 
f 5/2/6 8/3/6 2/4/6 
# 12 faces

#
# object Box02
#

v  54.6089 0.0000 6.4670
v  54.6089 0.0000 -0.7734
v  58.4443 0.0000 -0.7734
v  58.4443 0.0000 6.4670
# 4 vertices

vn 0.0000 -1.0000 -0.0000
vn 0.0000 1.0000 -0.0000
vn 1.0000 0.0000 -0.0000
# 3 vertex normals

vt 1.0000 0.0000 0.0000
vt 1.0000 1.0000 0.0000
vt 0.0000 1.0000 0.0000
vt 0.0000 0.0000 0.0000
# 4 texture coords

g Box02
usemtl wire_028028177
s 2
f 9/5/7 10/6/7 11/7/7 
f 11/7/7 12/8/7 9/5/7 
s 4
f 9/8/8 12/5/8 11/6/8 
f 11/6/8 10/7/8 9/8/8 
s 8
f 9/8/9 12/8/9 12/8/9 
f 12/8/9 9/8/9 9/8/9 
s 16
f 12/8/9 11/5/9 11/5/9 
f 11/5/9 12/8/9 12/8/9 
s 32
f 11/5/9 10/5/9 10/5/9 
f 10/5/9 11/5/9 11/5/9 
s 64
f 10/5/9 9/8/9 9/8/9 
f 9/8/9 10/5/9 10/5/9 
# 12 faces

