# 3ds Max Wavefront OBJ Exporter v0.97b - (c)2007 guruware
# File Created: 19.11.2015 16:36:45

mtllib house.mtl

#
# object Box01
#

#
# object Box02
#

#
# object Box03
#

v  -33.9565 -0.3898 -9.8680
v  -33.9565 -0.3898 -19.2927
v  39.4203 -0.3898 -19.2927
v  -33.9565 -0.3898 8.1385
v  -33.9565 -0.3898 18.2034
v  39.4203 -0.3898 18.2034
v  14.2670 -0.3898 18.2034
v  -10.3180 -0.3898 18.2034
v  39.4203 28.5553 -19.2927
v  -33.9565 28.5553 -19.2927
v  -32.6422 45.3628 0.0000
v  40.7346 45.3628 0.0000
v  -10.1061 18.8953 18.2034
v  14.0551 19.1072 18.2034
v  39.4203 28.5553 18.2034
v  -33.9565 28.5553 18.2034
v  -61.5967 -0.3960 -9.8647
v  -61.5967 -0.3960 8.1418
v  -61.4727 19.6606 8.1085
v  -61.2519 19.5571 -9.8647
v  -33.6117 19.5634 -9.8680
v  -33.8325 19.6669 8.1052
v  -40.5034 -0.4068 8.1392
v  -54.3728 -0.4100 8.1408
v  -40.2761 13.6263 8.1159
v  -54.3728 13.8536 8.1172
v  -54.3734 -0.4188 2.8133
v  -40.5040 -0.4157 2.8117
v  -40.2767 13.6174 2.7884
v  -54.3734 13.8448 2.7897
v  -10.3180 -0.3898 12.3432
v  14.2670 -0.3898 12.3432
v  14.0551 19.1072 12.3432
v  -10.1061 18.8953 12.3432
# 34 vertices

vn 0.0000 -1.0000 -0.0000
vn 0.0000 0.7540 -0.6569
vn 0.0000 0.9999 0.0149
vn 0.0000 0.9999 0.0139
vn 0.0000 0.0000 1.0000
vn 0.9999 -0.0141 0.0065
vn 1.0000 0.0000 -0.0000
vn 0.9995 -0.0249 -0.0192
vn 0.9995 -0.0304 -0.0043
vn 0.9974 0.0000 0.0720
vn 0.0000 0.0000 -1.0000
vn 0.0000 0.7347 0.6784
vn -0.9998 0.0200 -0.0067
vn -0.9970 0.0780 -0.0000
vn -0.9998 0.0154 0.0115
vn -0.9999 0.0113 -0.0058
vn -1.0000 0.0062 -0.0000
vn -0.9999 0.0121 -0.0066
vn -0.9998 0.0173 -0.0124
vn -1.0000 0.0000 -0.0000
vn -0.9999 0.0035 0.0106
vn -0.9996 -0.0083 0.0255
vn -0.9999 0.0006 -0.0111
vn -1.0000 0.0043 -0.0036
vn -0.0001 0.0000 -1.0000
vn 0.0026 -1.0000 -0.0000
vn 0.0002 -1.0000 -0.0009
vn -0.0019 -1.0000 -0.0033
vn 0.0002 -1.0000 -0.0000
vn 0.0001 0.0017 1.0000
vn 0.0001 0.0016 1.0000
vn -0.0002 1.0000 -0.0058
vn -0.0161 -0.9999 0.0017
vn 1.0000 -0.0000 -0.0001
vn -0.0002 1.0000 -0.0017
vn -0.9999 0.0162 0.0001
vn 0.0088 -1.0000 -0.0000
vn 0.9999 -0.0110 -0.0000
vn 0.0000 1.0000 -0.0000
vn -0.9999 -0.0109 -0.0000
# 40 vertex normals

vt 1.0000 0.7486 0.0000
vt 1.0000 1.0000 0.0000
vt 0.0000 1.0000 0.0000
vt 1.0000 0.2684 0.0000
vt 1.0000 0.0000 0.0000
vt 0.0000 0.0000 0.0000
vt 0.3346 0.0000 0.0000
vt 0.6696 0.0000 0.0000
vt 0.0000 0.4855 0.0000
vt 1.0000 0.4855 0.0000
vt 0.3304 0.0000 0.0000
vt 0.3332 0.6663 0.0000
vt 0.6625 0.6736 0.0000
vt 0.6654 0.0000 0.0000
vt 0.4855 1.0000 0.0000
vt 0.5145 1.0000 0.0000
vt 0.2514 0.0000 0.0000
vt 0.7316 0.0000 0.0000
vt 0.7307 0.6747 0.0000
vt 0.2514 0.4507 0.0000
vt 0.9400 0.2085 0.0000
vt 0.8054 0.0738 0.0000
vt 0.7309 0.4721 0.0000
vt 0.7309 0.4798 0.0000
# 24 texture coords

g Box03
usemtl wire_184155229
s 2
f 1/1/1 2/2/1 3/3/1 
f 4/4/1 1/1/1 3/3/1 
f 5/5/1 4/4/1 3/3/1 
f 3/3/1 6/6/1 7/7/1 
f 3/3/1 7/7/1 8/8/1 
f 5/5/1 3/3/1 8/8/1 
s 4
f 9/2/2 10/3/2 11/9/3 
f 11/9/3 12/10/4 9/2/2 
s 8
f 5/6/5 8/11/5 13/12/5 
f 14/13/5 7/14/5 6/5/5 
f 14/13/5 6/5/5 15/2/5 
f 14/13/5 15/2/5 16/3/5 
f 13/12/5 14/13/5 16/3/5 
f 5/6/5 13/12/5 16/3/5 
s 16
f 6/6/6 3/5/7 9/2/8 
f 6/6/6 9/2/8 12/15/9 
f 6/6/6 12/15/9 15/3/10 
s 32
f 3/6/11 2/5/11 10/2/11 
f 10/2/11 9/3/11 3/6/11 
s 4
f 16/6/12 15/5/12 12/10/4 
f 12/10/4 11/9/3 16/6/12 
s 64
f 16/2/13 11/16/14 10/3/15 
f 17/17/16 18/18/17 19/19/18 
f 19/19/18 20/20/19 17/17/16 
f 10/3/15 2/6/20 1/17/21 
f 10/3/15 1/17/21 21/20/22 
f 22/19/23 4/18/17 5/5/24 
f 22/19/23 5/5/24 16/2/13 
f 21/20/22 22/19/23 16/2/13 
f 10/3/15 21/20/22 16/2/13 
s off
f 21/20/25 1/17/25 17/17/25 
f 17/17/25 20/20/25 21/20/25 
f 1/1/26 4/4/26 23/21/26 
f 1/1/27 23/21/27 24/22/27 
f 1/1/28 24/22/28 18/18/28 
f 1/1/29 18/18/29 17/17/29 
f 25/23/30 23/18/30 4/18/30 
f 25/23/30 4/18/30 22/19/30 
f 26/24/31 25/23/31 22/19/31 
f 26/24/31 22/19/31 19/19/31 
f 26/24/30 19/19/30 18/18/30 
f 26/24/30 18/18/30 24/18/30 
f 22/19/32 21/20/32 20/20/32 
f 20/20/32 19/19/32 22/19/32 
f 27/18/30 28/18/30 29/23/30 
f 29/23/30 30/24/30 27/18/30 
f 25/23/33 26/24/33 30/24/33 
f 30/24/33 29/23/33 25/23/33 
f 26/24/34 24/18/34 27/18/34 
f 27/18/34 30/24/34 26/24/34 
f 24/18/35 23/18/35 28/18/35 
f 28/18/35 27/18/35 24/18/35 
f 23/18/36 25/23/36 29/23/36 
f 29/23/36 28/18/36 23/18/36 
s 8
f 31/11/5 32/14/5 33/13/5 
f 33/13/5 34/12/5 31/11/5 
s off
f 14/13/37 13/12/37 34/12/37 
f 34/12/37 33/13/37 14/13/37 
f 13/12/38 8/11/38 31/11/38 
f 31/11/38 34/12/38 13/12/38 
f 8/11/39 7/14/39 32/14/39 
f 32/14/39 31/11/39 8/11/39 
f 7/14/40 14/13/40 33/13/40 
f 33/13/40 32/14/40 7/14/40 
# 64 faces

